<svg xmlns="http://www.w3.org/2000/svg" xmlns:xlink="http://www.w3.org/1999/xlink" width="145.95" height="21" viewBox="0 0 145.95 21">
  <defs>
    <clipPath id="clip-nova-speaker-logo">
      <rect width="145.95" height="21"/>
    </clipPath>
  </defs>
  <g id="nova-speaker-logo" clip-path="url(#clip-nova-speaker-logo)">
    <path id="Pfad_68502" data-name="Pfad 68502" d="M14.574-14.952V0H10.185l-2.9-6.069q-1.6-3.381-2.73-6.174H4.515q.168,3.465.168,6.489V0H1.722V-14.952H6.111l2.9,6.069q1.6,3.381,2.73,6.174h.042q-.168-3.465-.168-6.489v-5.754Zm4.389,1.764a6.625,6.625,0,0,1,5.187-2.1,6.641,6.641,0,0,1,5.187,2.09,8.215,8.215,0,0,1,1.89,5.722,8.215,8.215,0,0,1-1.89,5.723A6.641,6.641,0,0,1,24.15.336a6.641,6.641,0,0,1-5.187-2.09,8.215,8.215,0,0,1-1.89-5.723A8.175,8.175,0,0,1,18.963-13.188Zm8.022,2a3.354,3.354,0,0,0-2.835-1.365A3.392,3.392,0,0,0,21.3-11.2a5.987,5.987,0,0,0-1.04,3.728A5.987,5.987,0,0,0,21.3-3.748,3.392,3.392,0,0,0,24.15-2.394,3.392,3.392,0,0,0,27-3.748a5.987,5.987,0,0,0,1.039-3.728A5.9,5.9,0,0,0,26.985-11.193ZM44.9-14.952,40.257,0H36.393L31.752-14.952H34.9l1.785,5.817q.966,3.066,1.617,6.111h.042q.588-2.667,1.617-6.111l1.785-5.817ZM55.566,0,54.411-3.654H48.678L47.5,0H44.268l5.187-14.952h4.158L58.8,0ZM49.518-6.3h4.053l-.315-.987q-1.029-3.276-1.7-5.838h-.042q-.777,2.94-1.68,5.838ZM67.053-17.372V2.3H65.835V-17.372Zm12.894,2.147q5.208,0,5.208,4.914H83.769q0-3.675-3.822-3.675a3.679,3.679,0,0,0-2.436.724,2.456,2.456,0,0,0-.861,1.984A2.062,2.062,0,0,0,77.5-9.439,9.606,9.606,0,0,0,80.43-8.358q1.008.252,1.628.441a9.3,9.3,0,0,1,1.333.536A3.706,3.706,0,0,1,84.5-6.6a3.468,3.468,0,0,1,.662,1.092,4.106,4.106,0,0,1,.262,1.522A3.849,3.849,0,0,1,84.053-.882,5.613,5.613,0,0,1,80.325.273a5.479,5.479,0,0,1-3.959-1.344,5.173,5.173,0,0,1-1.4-3.906h1.365a3.929,3.929,0,0,0,1.05,3.014,4.153,4.153,0,0,0,2.94.977,4.284,4.284,0,0,0,2.761-.777,2.68,2.68,0,0,0,.955-2.2,2.084,2.084,0,0,0-.882-1.869,10.576,10.576,0,0,0-3.066-1.134,20.616,20.616,0,0,1-2.006-.588,7.016,7.016,0,0,1-1.46-.745A2.8,2.8,0,0,1,75.59-9.5a4.262,4.262,0,0,1-.326-1.754,3.622,3.622,0,0,1,1.26-2.877A5.049,5.049,0,0,1,79.947-15.225Zm12.894,4.284a3.988,3.988,0,0,1,3.276,1.512,6.308,6.308,0,0,1,1.218,4.074,6.308,6.308,0,0,1-1.218,4.074A3.988,3.988,0,0,1,92.841.231a4.108,4.108,0,0,1-2.037-.5,3.137,3.137,0,0,1-1.323-1.344h-.042v5.5h-1.3V-10.668h1.3v1.575h.042A3.137,3.137,0,0,1,90.8-10.437,4.108,4.108,0,0,1,92.841-10.941Zm-.21,1.092A2.775,2.775,0,0,0,90.258-8.62a5.484,5.484,0,0,0-.882,3.265,5.484,5.484,0,0,0,.882,3.266A2.775,2.775,0,0,0,92.631-.861a2.876,2.876,0,0,0,2.436-1.218,5.38,5.38,0,0,0,.9-3.276,5.38,5.38,0,0,0-.9-3.276A2.876,2.876,0,0,0,92.631-9.849ZM104.055-.84a3.308,3.308,0,0,0,2.1-.641,2.955,2.955,0,0,0,1.071-1.69h1.344a4.123,4.123,0,0,1-1.438,2.457,4.6,4.6,0,0,1-3.076.987,4.4,4.4,0,0,1-3.57-1.565,6.41,6.41,0,0,1-1.3-4.232,5.794,5.794,0,0,1,1.291-3.916,4.374,4.374,0,0,1,3.5-1.5,4.43,4.43,0,0,1,2.972,1.008,4.75,4.75,0,0,1,1.543,2.793,9.923,9.923,0,0,1,.168,2.058h-8.148a4.694,4.694,0,0,0,1.029,3.15A3.246,3.246,0,0,0,104.055-.84Zm2.31-8.022a3.164,3.164,0,0,0-2.394-.966,3.2,3.2,0,0,0-2.415.987,4.028,4.028,0,0,0-1.029,2.688h6.867A4.14,4.14,0,0,0,106.365-8.862Zm8.379-2.079a4.029,4.029,0,0,1,2.929,1.029,4.086,4.086,0,0,1,1.061,3.066v4.221A13.064,13.064,0,0,0,118.965,0h-1.218a8.059,8.059,0,0,1-.147-1.617h-.042a4.062,4.062,0,0,1-3.8,1.827,3.86,3.86,0,0,1-2.615-.861,2.782,2.782,0,0,1-1-2.205A2.662,2.662,0,0,1,111.058-5a6.559,6.559,0,0,1,3.14-1.134q1.533-.252,3.276-.378v-.5a2.786,2.786,0,0,0-.735-2.121,2.79,2.79,0,0,0-2-.693,2.916,2.916,0,0,0-2.016.641,2.409,2.409,0,0,0-.777,1.733h-1.365a3.561,3.561,0,0,1,1.187-2.52A4.3,4.3,0,0,1,114.744-10.941Zm2.73,6.342v-.819q-1.365.105-3.108.378a4.971,4.971,0,0,0-2.205.714,1.642,1.642,0,0,0-.63,1.386,1.861,1.861,0,0,0,.661,1.5,2.77,2.77,0,0,0,1.838.556,3.238,3.238,0,0,0,2.457-.945,3.387,3.387,0,0,0,.777-1.166A4.872,4.872,0,0,0,117.474-4.6Zm7.119-1.281L130.368,0h-1.806l-5.313-5.5h-.042V0h-1.3V-14.952h1.3v8.757h.042L128-10.668h1.764ZM135.324-.84a3.308,3.308,0,0,0,2.1-.641,2.955,2.955,0,0,0,1.071-1.69h1.344A4.123,4.123,0,0,1,138.4-.714a4.6,4.6,0,0,1-3.076.987,4.4,4.4,0,0,1-3.57-1.565,6.41,6.41,0,0,1-1.3-4.232,5.794,5.794,0,0,1,1.292-3.916,4.374,4.374,0,0,1,3.5-1.5,4.43,4.43,0,0,1,2.971,1.008,4.75,4.75,0,0,1,1.544,2.793,9.923,9.923,0,0,1,.168,2.058h-8.148a4.694,4.694,0,0,0,1.029,3.15A3.246,3.246,0,0,0,135.324-.84Zm2.31-8.022a3.164,3.164,0,0,0-2.394-.966,3.2,3.2,0,0,0-2.415.987A4.028,4.028,0,0,0,131.8-6.153h6.867A4.14,4.14,0,0,0,137.634-8.862Zm9.324-1.89a3.66,3.66,0,0,1,.714.063V-9.45A5.413,5.413,0,0,0,147-9.492a3.054,3.054,0,0,0-2.457,1.008,4.27,4.27,0,0,0-.861,2.856V0h-1.3V-10.668h1.281v1.68h.042A3.582,3.582,0,0,1,146.958-10.752Z" transform="translate(-1.722 17.244)" fill="#fff"/>
  </g>
</svg>
